#!OML:ASF H:\Terrain\Walking\May29\JustinRory\rory.ASF
:FULLY-SPECIFIED
:DEGREES
445
root 7.9934 15.1535 -7.69242 -6.06887 30.9454 -4.09012
lowerback 33.8267 2.17049 7.0756
upperback 8.99984 5.55014 1.44518
thorax -6.75489 2.77741 -4.16168
lowerneck -12.8799 -16.5087 -11.1046
upperneck -9.49522 -20.3816 23.6296
head 3.04555 -9.69036 7.08717
rclavicle -7.99114e-014 1.59028e-015
rhumerus 106.455 -41.2012 -126.895
rradius 8.51583
rwrist 66.4815
rhand -24.9813 18.445
rfingers 7.12502
rthumb 1.52966 -11.5293
lclavicle -7.99114e-014 1.59028e-015
lhumerus -15.6981 -19.2776 81.3102
lradius 55.3379
lwrist 1.1366
lhand -23.8993 15.6344
lfingers 7.12502
lthumb 2.57461 45.5986
rfemur -38.6857 1.86816 -2.23639
rtibia 34.1776
rfoot 13.2554 -17.7733
rtoes 10.0028
lfemur -61.7521 -2.30724 -11.8823
ltibia 93.1076
lfoot -18.3733 -0.797089
ltoes -19.1002
446
root 7.98275 15.2038 -7.70158 -5.54833 31.9677 -4.17485
lowerback 33.6289 2.04726 7.23112
upperback 8.97075 5.43336 1.38798
thorax -6.70388 2.72773 -4.25623
lowerneck -13.3945 -16.812 -11.3764
upperneck -10.1535 -20.6205 24.2873
head 3.09091 -9.78523 7.25984
rclavicle 2.38542e-014 -1.90833e-014
rhumerus 107.661 -41.4238 -127.685
rradius 8.96603
rwrist 63.8749
rhand -25.5033 17.8223
rfingers 7.12502
rthumb 1.02545 -12.155
lclavicle 2.38542e-014 -1.90833e-014
lhumerus -15.2272 -19.1504 80.4433
lradius 52.8072
lwrist -0.193087
lhand -23.1478 15.5871
lfingers 7.12502
lthumb 3.30034 45.5414
rfemur -38.2344 2.15845 -2.76827
rtibia 33.2355
rfoot 13.1541 -19.4638
rtoes 11.7767
lfemur -61.0733 -2.23004 -11.9566
ltibia 91.6708
lfoot -18.8682 -0.263735
ltoes -19.8989
447
root 7.96563 15.2544 -7.69955 -5.32257 32.9607 -4.59041
lowerback 33.5364 1.92604 7.5023
upperback 9.07599 5.38079 1.51099
thorax -6.54421 2.71666 -4.2402
lowerneck -14.6839 -17.2253 -11.8233
upperneck -10.3264 -20.9958 24.8652
head 3.4267 -9.8605 7.33773
rclavicle 1.27222e-013 -8.74653e-015
rhumerus 109.114 -41.5844 -128.538
rradius 9.34065
rwrist 61.5245
rhand -22.7721 17.2592
rfingers 7.12502
rthumb 3.66319 -12.689
lclavicle 1.27222e-013 -8.74653e-015
lhumerus -14.6009 -18.5484 79.6409
lradius 50.3551
lwrist -1.53349
lhand -20.9278 16.531
lfingers 7.12502
lthumb 5.44403 46.4411
rfemur -37.7203 2.81025 -3.08084
rtibia 32.3446
rfoot 12.4969 -21.7481
rtoes 15.148
lfemur -60.1326 -2.0432 -11.7346
ltibia 89.8264
lfoot -19.1747 0.0265666
ltoes -20.5919
448
root 7.94588 15.298 -7.69019 -5.05901 34.1466 -4.94219
lowerback 33.3113 1.82472 7.56152
upperback 9.01093 5.27648 1.63244
thorax -6.54625 2.66578 -4.10382
lowerneck -14.8705 -17.2533 -11.7979
upperneck -10.9041 -20.9181 25.2775
head 3.33216 -9.82919 7.47623
rclavicle -2.94201e-014 2.38542e-015
rhumerus 110.229 -42.0557 -129.315
rradius 9.68206
rwrist 60.0716
rhand -20.9297 17.0178
rfingers 7.12502
rthumb 5.4422 -12.8923
lclavicle -2.94201e-014 2.38542e-015
lhumerus -14.4535 -17.7215 78.874
lradius 48.0405
lwrist -3.16008
lhand -18.2687 18.283
lfingers 7.12502
lthumb 8.01098 48.1112
rfemur -37.1582 3.40801 -3.51513
rtibia 31.5419
rfoot 11.4079 -23.9426
rtoes 18.5505
lfemur -59.0875 -2.0304 -11.5762
ltibia 87.6001
lfoot -19.2874 0.158333
ltoes -20.4673
449
root 7.92961 15.3359 -7.67863 -4.40758 35.3613 -4.84531
lowerback 32.9426 1.70303 7.35142
upperback 8.88292 5.02075 1.49692
thorax -6.58029 2.54218 -4.04582
lowerneck -14.5849 -17.12 -11.6137
upperneck -11.8218 -20.6199 25.9476
head 3.05608 -9.74595 7.75283
rclavicle 3.93594e-014 -2.62396e-014
rhumerus 111.295 -42.5164 -130.322
rradius 9.8596
rwrist 58.4542
rhand -20.8089 16.979
rfingers 7.12502
rthumb 5.55887 -12.9281
lclavicle 3.93594e-014 -2.62396e-014
lhumerus -14.4357 -16.979 77.8081
lradius 45.8682
lwrist -4.49202
lhand -16.6078 19.4722
lfingers 7.12502
lthumb 9.61372 49.2328
rfemur -36.7642 3.55257 -4.17393
rtibia 30.855
rfoot 10.939 -25.3767
rtoes 19.9073
lfemur -58.1266 -1.95359 -11.8949
ltibia 85.007
lfoot -19.2654 0.348802
ltoes -21.4165
450
root 7.91262 15.3758 -7.65815 -3.704 36.3931 -4.65905
lowerback 32.6266 1.74384 7.04605
upperback 8.87502 4.95267 1.4903
thorax -6.50253 2.51507 -3.86088
lowerneck -14.2799 -17.338 -12.063
upperneck -13.309 -20.6147 27.0884
head 2.7997 -9.81517 8.22214
rclavicle 5.52621e-014 -2.3059e-014
rhumerus 112.643 -42.9711 -131.289
rradius 10.1509
rwrist 56.2623
rhand -20.5613 16.0403
rfingers 7.12502
rthumb 5.79793 -13.8603
lclavicle 5.52621e-014 -2.3059e-014
lhumerus -14.3315 -16.4719 76.8659
lradius 43.975
lwrist -5.22297
lhand -15.4768 20.1969
lfingers 7.12502
lthumb 10.7049 49.9042
rfemur -36.5232 3.74825 -4.80966
rtibia 30.3309
rfoot 10.8484 -26.6376
rtoes 20.3303
lfemur -57.0035 -1.65279 -12.2647
ltibia 82.0304
lfoot -18.8736 0.0042439
ltoes -19.9435
451
root 7.89929 15.4139 -7.63183 -3.38414 37.306 -4.86332
lowerback 32.1824 1.84845 6.97903
upperback 9.29786 5.02523 1.77811
thorax -6.50605 2.55083 -3.84026
lowerneck -14.1706 -17.6586 -12.3979
upperneck -14.6193 -20.7678 27.9743
head 2.60383 -9.9476 8.55522
rclavicle 4.41302e-014 -4.21423e-014
rhumerus 112.611 -44.2117 -130.103
rradius 10.4089
rwrist 52.7644
rhand -20.5873 14.7721
rfingers 7.12502
rthumb 5.77281 -15.1292
lclavicle 4.41302e-014 -4.21423e-014
lhumerus -14.471 -16.1276 76.0042
lradius 42.565
lwrist -5.55925
lhand -15.4364 20.5294
lfingers 7.12502
lthumb 10.7439 50.2347
rfemur -36.2559 4.18747 -5.09884
rtibia 30.0004
rfoot 10.1324 -28.2123
rtoes 21.8369
lfemur -55.5594 -1.20788 -12.3314
ltibia 78.7373
lfoot -18.152 -0.363445
ltoes -17.1682
